<svg width="24" height="24" viewBox="0 0 24 24" fill="none" xmlns="http://www.w3.org/2000/svg"><g clip-path="url(#clip0_3_27)"><path d="M21.5 15L15.4085 14.6663C14.7793 14.6805 14.1703 14.4441 13.7153 14.0092C13.2604 13.5743 12.9969 12.9765 12.9827 12.3473C12.9685 11.7181 13.2049 11.109 13.6398 10.6541C14.0747 10.1992 14.6725 9.93562 15.3017 9.92145L21.5 8.99999" stroke="currentColor" stroke-width="2" stroke-linecap="round" stroke-linejoin="round"/><path fill-rule="evenodd" clip-rule="evenodd" d="M12 21C7.02944 21 3 16.9706 3 12C3 7.02944 7.02944 3 12 3C15.9187 3 19.2524 5.50442 20.4879 9H22.5859C21.2801 4.38299 17.0351 1 12 1C5.92487 1 1 5.92487 1 12C1 18.0751 5.92487 23 12 23C17.0351 23 21.2801 19.617 22.5859 15H20.4879C19.2524 18.4956 15.9187 21 12 21Z" fill="currentColor"/><circle cx="11.5" cy="5.5" r="1.5" fill="currentColor"/><circle cx="7.5" cy="7.5" r="1.5" fill="currentColor"/><circle cx="5.5" cy="11.5" r="1.5" fill="currentColor"/><circle cx="6.5" cy="15.5" r="1.5" fill="currentColor"/><circle cx="10.5" cy="18.5" r="1.5" fill="currentColor"/></g><defs><clipPath id="clip0_3_27"><rect width="24" height="24" fill="white"/></clipPath></defs></svg>