<svg width="24" height="24" viewBox="0 0 24 24" fill="none" xmlns="http://www.w3.org/2000/svg"><path d="M17 7C18.1046 7 19 6.10457 19 5C19 3.89543 18.1046 3 17 3C15.8954 3 15 3.89543 15 5C15 6.10457 15.8954 7 17 7Z" fill="black" stroke="black" stroke-width="2" stroke-linecap="round" stroke-linejoin="round"/><path d="M6 14C7.10457 14 8 13.1046 8 12C8 10.8954 7.10457 10 6 10C4.89543 10 4 10.8954 4 12C4 13.1046 4.89543 14 6 14Z" fill="black" stroke="black" stroke-width="2" stroke-linecap="round" stroke-linejoin="round"/><path d="M17 21C18.1046 21 19 20.1046 19 19C19 17.8954 18.1046 17 17 17C15.8954 17 15 17.8954 15 19C15 20.1046 15.8954 21 17 21Z" fill="black" stroke="black" stroke-width="2" stroke-linecap="round" stroke-linejoin="round"/><path d="M8 13L14.5 17.5" stroke="black" stroke-width="2" stroke-linecap="round" stroke-linejoin="round"/><path d="M15.5 6L7.5 11" stroke="black" stroke-width="2" stroke-linecap="round" stroke-linejoin="round"/></svg>